<?xml version="1.0" encoding="UTF-8" standalone="no"?>
<svg width="1376px" height="512px" viewBox="0 0 1376 512" version="1.1" xmlns="http://www.w3.org/2000/svg" xmlns:xlink="http://www.w3.org/1999/xlink" xmlns:sketch="http://www.bohemiancoding.com/sketch/ns">
    <title>ng-conf-horizontal-dark</title>
    <description>Created with Sketch (http://www.bohemiancoding.com/sketch)</description>
    <defs>
        <path d="M50,0 C50,0 0,11.1223301 0,24.6776699 L0,174.481553 C0,176.914563 17.6056338,179 17.6056338,179 C17.6056338,179 35.2112676,176.914563 35.2112676,174.481553 L35.2112676,38.2330097 C35.2112676,34.4097087 50,30.9339806 50,30.9339806 C50,30.9339806 64.7887324,34.4097087 64.7887324,38.5805825 L64.7887324,174.481553 C64.7887324,176.914563 82.3943662,179 82.3943662,179 C82.3943662,179 100,176.914563 100,174.481553 L100,24.6776699 C100,11.1223301 50,0 50,0 Z M50,0" id="path-1" stroke="none" fill-rule="evenodd" sketch:type="MSShapeGroup"></path>
        <mask id="mask-2" fill="white">
            <use xlink:href="#path-1"></use>
        </mask>
        <path d="M67.6056338,130.147016 L67.6056338,110.852984 C86.6197183,107.344978 100,98.224163 100,87.349345 L100,24.9068413 C100,11.2256186 50,0 50,0 C50,0 0,11.2256186 0,24.9068413 L0,87.349345 C0,98.224163 13.3802817,107.344978 32.3943662,110.852984 L32.3943662,130.147016 C13.3802817,133.655022 0,142.775837 0,153.299854 L0,215.742358 C0,229.774381 50,241 50,241 C50,241 100,229.774381 100,215.742358 L100,153.299854 C100,142.775837 86.6197183,133.655022 67.6056338,130.147016 Z M50,212 C50,212 35,208.363636 35,204 L35,167.636364 C35,163.636364 50,160 50,160 C50,160 65,163.636364 65,167.636364 L65,204.363636 C65,208.363636 50,212 50,212 Z M50,84 C50,84 35,80.3636364 35,76.3636364 L35,39.6363636 C35,35.6363636 50,32 50,32 C50,32 65,35.6363636 65,40 L65,76.3636364 C65,80.3636364 50,84 50,84 Z M50,84" id="path-3" stroke="none" fill-rule="evenodd" sketch:type="MSShapeGroup"></path>
        <path d="M50,160 C50.0006774,160.000164 65,163.636454 65,167.636364 L65,204.363636 C65,208.363546 50.0006774,211.999836 50,212 L50,241 C50,241 100,229.774381 100,215.742358 L100,153.299854 C100,142.775837 86.6197183,133.655022 67.6056338,130.147016 L67.6056338,110.852984 C86.6197183,107.344978 100,98.224163 100,87.349345 L100,24.9068413 C100,11.2256186 50,0 50,0 L50,32 C50.0006774,32.0001642 65,35.6364622 65,40 L65,76.3636364 C65,80.363546 50.0006774,83.9998358 50,84 L50,160 Z M50,160" id="path-4" stroke="none" fill-opacity="0.2" fill-rule="evenodd" sketch:type="MSShapeGroup" sketch:break-mask="yes"></path>
        <mask id="mask-5" fill="white">
            <use xlink:href="#path-3"></use>
            <use xlink:href="#path-4"></use>
        </mask>
        <path d="M51.1853113,0 L3.61138132,0 C2.39153696,0 0,14.8314607 0,14.8314607 C0,14.8314607 2.39153696,30 3.61138132,30 L51.1853113,30 C52.4051556,30 55,15.1685393 55,15.1685393 C55,15.1685393 52.4051556,0 51.1853113,0 Z M51.1853113,0" id="path-6" stroke="none" fill-rule="evenodd" sketch:type="MSShapeGroup"></path>
        <mask id="mask-7" fill="white">
            <use xlink:href="#path-6"></use>
        </mask>
        <path d="M82.3943662,119.301923 C82.3943662,119.301923 64.7887324,121.413462 64.7887324,123.525 L64.7887324,143.936538 C64.7887324,148.159615 50,151.678846 50,151.678846 C50,151.678846 35.2112676,148.159615 35.2112676,144.288462 L35.2112676,38.7115385 C35.2112676,34.8403846 50,31.3211538 50,31.3211538 C50,31.3211538 64.7887324,34.8403846 64.7887324,39.0634615 L64.7887324,59.475 C64.7887324,61.5865385 82.3943662,63.6980769 82.3943662,63.6980769 C82.3943662,63.6980769 100,61.5865385 100,59.475 L100,24.9865385 C100,11.2615385 50,0 50,0 C50,0 0,11.2615385 0,24.9865385 L0,158.013462 C0,171.738462 50,183 50,183 C50,183 100,171.738462 100,158.013462 L100,123.525 C100,121.413462 82.3943662,119.301923 82.3943662,119.301923 Z M82.3943662,119.301923" id="path-8" stroke="none" fill-rule="evenodd" sketch:type="MSShapeGroup"></path>
        <mask id="mask-9" fill="white">
            <use xlink:href="#path-8"></use>
        </mask>
        <path d="M50,0 C50,0 0,11.1223301 0,24.6776699 L0,174.481553 C0,176.914563 17.6056338,179 17.6056338,179 C17.6056338,179 35.2112676,176.914563 35.2112676,174.481553 L35.2112676,38.2330097 C35.2112676,34.4097087 50,30.9339806 50,30.9339806 C50,30.9339806 64.7887324,34.4097087 64.7887324,38.5805825 L64.7887324,174.481553 C64.7887324,176.914563 82.3943662,179 82.3943662,179 C82.3943662,179 100,176.914563 100,174.481553 L100,24.6776699 C100,11.1223301 50,0 50,0 Z M50,0" id="path-10" stroke="none" fill-rule="evenodd" sketch:type="MSShapeGroup"></path>
        <mask id="mask-11" fill="white">
            <use xlink:href="#path-10"></use>
        </mask>
        <path d="M85.7976654,59.9511834 L56.381323,59.9511834 L56.381323,38.5650888 C56.381323,38.5650888 63.0350195,30.852071 71.0894942,30.852071 L85.7976654,30.852071 C87.8988327,30.852071 90,15.4260355 90,15.4260355 C90,15.4260355 87.8988327,0 85.7976654,0 L71.0894942,0 C43.7743191,0 21.3618677,24.8920118 21.3618677,24.8920118 L21.3618677,59.9511834 L3.85214008,59.9511834 C1.75097276,59.9511834 0,75.3772189 0,75.3772189 C0,75.3772189 1.75097276,91.1538462 3.85214008,91.1538462 L21.3618677,91.1538462 L21.3618677,232.442308 C21.3618677,234.89645 38.8715953,237 38.8715953,237 C38.8715953,237 56.381323,234.89645 56.381323,232.442308 L56.381323,91.1538462 L85.7976654,91.1538462 C87.8988327,91.1538462 90,75.7278107 90,75.7278107 C90,75.7278107 87.8988327,59.9511834 85.7976654,59.9511834 Z M85.7976654,59.9511834" id="path-12" stroke="none" fill-rule="evenodd" sketch:type="MSShapeGroup"></path>
        <mask id="mask-13" fill="white">
            <use xlink:href="#path-12"></use>
        </mask>
    </defs>
    <g id="logos" stroke="none" stroke-width="1" fill="none" fill-rule="evenodd" sketch:type="MSPage">
        <g id="ng-conf-dark-horizontal" sketch:type="MSLayerGroup">
            <g id="ng-conf-logo-mark" sketch:type="MSShapeGroup">
                <g id="ng-conf-shape">
                    <path d="M241,510.690537 L445.893281,397.84764 L484,83.0605245 L241.225473,254 L241,510.690537 Z M241,510.690537" id="green" fill="#0C7D46"></path>
                    <path d="M241,254 L0,85.1150895 L38.153179,400.471024 L241,512 L241,254 Z M241,254" id="yellow" fill="#F4B400"></path>
                    <path d="M0,84.6519886 L241,256.345269 L241.225473,0 L0,84.6519886 Z M0,84.6519886" id="blue" fill="#577EF3"></path>
                    <path d="M241,254.690537 L484,83.5 L241,0 L241,254.690537 Z M241,254.690537" id="blue-shadow" fill="#4564C2"></path>
                </g>
                <g id="angular-logo" transform="translate(64.926829, 69.401535)">
                    <path d="M0.848639566,62.6028031 L28.6058428,292.363785 L176.073171,373.621197 L325.548369,291.261217 L353.297702,61.5094015 L176.073171,0.886506394 L0.848639566,62.6028031 Z M0.848639566,62.6028031" id="angular-logo-shape-outer" fill-opacity="0.2" fill="#000000"></path>
                    <path d="M20.8706965,76.765249 L45.4742168,280.421537 L176.738334,352.446747 L308.6791,279.444239 L333.275645,75.7960762 L176.573241,22.0609568 L20.8706965,76.765249 Z M20.8706965,76.765249" id="angular-logo-shape-inner" fill="#DB4437"></path>
                    <path d="M213.11084,185.598465 L176.073171,109.887509 L144.062797,185.598465 L213.11084,185.598465 Z M129.772336,218.633166 L107.996271,273.598465 L67.4911111,273.598465 L176.073171,32.5467008 L288.496791,273.598465 L250.953344,273.598465 L227.111425,218.633166 L129.772336,218.633166 Z M129.772336,218.633166" id="a" fill="#F0F0F0"></path>
                    <path d="M176.073171,352.446747 L308.6791,279.444239 L333.275645,75.7960762 L176.073171,22.0644182 L176.073171,352.446747 Z M176.073171,352.446747" id="angular-logo-shadow" fill-opacity="0.2" fill="#000000"></path>
                </g>
            </g>
            <g id="ng-conf-logotype" transform="translate(568.000000, 108.000000)">
                <g id="n" transform="translate(0.000000, 56.000000)">
                    <use xlink:href="#path-1" fill="#F0F0F0"></use>
                    <path d="M50,0 L50,30.9339806 C50,30.9339806 64.7887324,34.4097087 64.7887324,38.5805825 L64.7887324,174.481553 C64.7887324,176.914563 82.3943662,179 82.3943662,179 C82.3943662,179 100,176.914563 100,174.481553 L100,24.6776699 C100,11.1223301 50,0 50,0 Z M50,0" id="n-shadow" fill-opacity="0.2" fill="#000000" sketch:type="MSShapeGroup"></path>
                </g>
                <g id="g" transform="translate(131.000000, 56.000000)">
                    <use xlink:href="#path-3" fill="#F0F0F0"></use>
                    <use id="g-shadow" xlink:href="#path-4" fill="#000000"></use>
                </g>
                <g id="dash" transform="translate(262.000000, 138.000000)">
                    <use xlink:href="#path-6" fill="#999999"></use>
                    <path d="M51.1853113,0 L28,0 L28,30 L51.1853113,30 C52.4051556,30 55,15.1685393 55,15.1685393 C55,15.1685393 52.4051556,0 51.1853113,0 Z M51.1853113,0" id="dash-shadow" fill-opacity="0.2" fill="#000000" sketch:type="MSShapeGroup"></path>
                </g>
                <g id="c" transform="translate(348.000000, 56.000000)">
                    <use xlink:href="#path-8" fill="#F0F0F0"></use>
                    <path d="M82.3943662,119.301923 C82.3943662,119.301923 64.7887324,121.413462 64.7887324,123.525 L64.7887324,143.936538 C64.7887324,148.159615 50,151.678846 50,151.678846 L50,183 C50,183 100,171.738462 100,158.013462 L100,123.525 C100,121.413462 82.3943662,119.301923 82.3943662,119.301923 Z M50,31.3211538 C50,31.3211538 64.7887324,34.8403846 64.7887324,39.0634615 L64.7887324,59.475 C64.7887324,61.5865385 82.3943662,63.6980769 82.3943662,63.6980769 C82.3943662,63.6980769 100,61.5865385 100,59.475 L100,24.9865385 C100,11.2615385 50,0 50,0 L50,31.3211538 Z M50,31.3211538" id="c-shadow" fill-opacity="0.2" fill="#000000" sketch:type="MSShapeGroup"></path>
                </g>
                <g id="o" transform="translate(478.000000, 56.000000)" sketch:type="MSShapeGroup">
                    <path d="M50,0 C50,0 0,11.2615385 0,24.9865385 L0,158.013462 C0,171.738462 50,183 50,183 C50,183 100,171.738462 100,158.013462 L100,24.9865385 C100,11.2615385 50,0 50,0 Z M50,150 C50,150 35,146.491228 35,142.631579 L35,37.3684211 C35,33.5087719 50,30 50,30 C50,30 65,33.5087719 65,37.7192982 L65,142.631579 C65,146.491228 50,150 50,150 Z M50,150" fill="#F0F0F0"></path>
                    <path d="M50,1.9140316e-09 L50,183 C50,183 100,171.738462 100,158.013462 L100,24.9865385 C100,11.2616418 50.0007527,0.000169522252 50,1.9140316e-09 Z M50,150 L50,30 C50.0002258,30.0000528 65,33.5088036 65,37.7192982 L65,142.631579 C65,146.491199 50.0002258,149.999947 50,150 Z M50,150" id="o-shadow" fill-opacity="0.2" fill="#000000"></path>
                </g>
                <g id="n" transform="translate(609.000000, 56.000000)">
                    <use xlink:href="#path-10" fill="#F0F0F0"></use>
                    <path d="M50,0 L50,30.9339806 C50,30.9339806 64.7887324,34.4097087 64.7887324,38.5805825 L64.7887324,174.481553 C64.7887324,176.914563 82.3943662,179 82.3943662,179 C82.3943662,179 100,176.914563 100,174.481553 L100,24.6776699 C100,11.1223301 50,0 50,0 Z M50,0" id="n-shadow" fill-opacity="0.2" fill="#000000" sketch:type="MSShapeGroup"></path>
                </g>
                <g id="f" transform="translate(718.000000, 0.000000)">
                    <use xlink:href="#path-12" fill="#F0F0F0"></use>
                    <path d="M71.0894942,0 L85.7976654,0 C87.8988327,0 90,15.4260355 90,15.4260355 C90,15.4260355 87.8988327,30.852071 85.7976654,30.852071 L71.0894942,30.852071 C63.0350195,30.852071 56.381323,38.5650888 56.381323,38.5650888 L56.381323,59.9511834 L85.7976654,59.9511834 C87.8988327,59.9511834 90,75.7278107 90,75.7278107 C90,75.7278107 87.8988327,91.1538462 85.7976654,91.1538462 L56.381323,91.1538462 L56.381323,232.442308 C56.381323,234.89645 38.8715953,237 38.8715953,237 C38.8715953,237 38.5523218,236.961644 38,236.889247 L38,11.0927929 C46.8118755,5.3520835 58.4236124,0 71.0894942,0 Z M71.0894942,0" id="f-shadow" fill-opacity="0.2" fill="#000000" sketch:type="MSShapeGroup"></path>
                </g>
            </g>
        </g>
    </g>
</svg>